<?xml version="1.0" standalone="no"?>
<!DOCTYPE svg PUBLIC "-//W3C//DTD SVG 20010904//EN"
 "http://www.w3.org/TR/2001/REC-SVG-20010904/DTD/svg10.dtd">
<svg version="1.0" xmlns="http://www.w3.org/2000/svg"
 width="1080.000000pt" height="1080.000000pt" viewBox="0 0 1080.000000 1080.000000"
 preserveAspectRatio="xMidYMid meet">
<metadata>
Created by potrace 1.14, written by Peter Selinger 2001-2017
</metadata>
<g transform="translate(0.000000,1080.000000) scale(0.100000,-0.100000)"
fill="#000000" stroke="none">
<path d="M0 5400 l0 -5400 5400 0 5400 0 0 5400 0 5400 -5400 0 -5400 0 0
-5400z m6005 4182 l600 -417 3 -62 3 -62 47 -3 47 -3 3 -147 3 -148 -73 0
c-68 0 -73 2 -97 31 -20 24 -41 34 -91 45 -36 9 -85 28 -110 44 -25 15 -83 40
-130 55 -123 38 -405 92 -554 106 -159 15 -490 6 -630 -16 -210 -33 -472 -102
-566 -150 -25 -12 -72 -28 -105 -35 -46 -10 -67 -20 -92 -46 -30 -32 -35 -34
-103 -34 l-71 0 3 148 3 147 47 3 47 3 3 62 3 62 600 417 c330 230 602 418
605 418 3 0 275 -188 605 -418z m-275 -708 c69 -9 177 -27 240 -41 125 -27
370 -105 464 -147 51 -23 57 -29 53 -48 -4 -13 -47 -216 -98 -453 -50 -236
-93 -431 -94 -433 -1 -1 -59 13 -130 33 -277 76 -491 105 -769 105 -258 0
-536 -39 -765 -107 -47 -14 -95 -26 -106 -27 -18 -1 -28 36 -117 449 -53 248
-97 451 -98 453 -2 15 294 118 450 157 326 81 630 100 970 59z m-30 -1150
c254 -29 509 -93 745 -188 76 -30 142 -59 147 -64 6 -6 -6 -78 -31 -190 -23
-99 -41 -183 -41 -186 0 -12 -29 -5 -84 19 -31 14 -63 25 -70 25 -9 0 -19 -31
-31 -97 -10 -54 -19 -101 -21 -105 -3 -4 -34 4 -71 18 -89 34 -343 99 -468
121 -127 22 -583 25 -715 5 -117 -18 -396 -87 -491 -122 -90 -33 -79 -43 -105
93 -11 59 -21 87 -31 87 -7 0 -43 -13 -79 -30 -45 -20 -66 -26 -69 -17 -20 56
-84 372 -77 379 18 18 286 120 402 153 154 44 336 82 480 99 160 19 446 19
610 0z m50 -873 c125 -22 270 -54 270 -60 0 -8 -1703 -1242 -1707 -1237 -5 4
174 1133 181 1144 9 14 166 65 312 102 110 27 259 54 359 64 78 8 521 -2 585
-13z m758 -1401 c81 -517 83 -533 65 -550 -24 -23 -2642 -1920 -2658 -1926 -8
-4 -11 3 -8 18 2 13 50 319 107 682 72 461 108 661 117 667 8 4 523 377 1144
828 622 451 1134 819 1140 817 5 -1 47 -242 93 -536z m320 -2042 c46 -293 83
-540 82 -550 0 -10 -291 -229 -762 -574 -420 -307 -1044 -767 -1388 -1021
l-624 -463 -250 2 -249 3 -20 27 c-35 47 -31 104 32 518 49 317 65 397 79 407
9 7 690 501 1512 1097 822 597 1497 1085 1500 1086 3 0 43 -240 88 -532z m247
-1590 c3 -18 35 -217 71 -443 69 -435 73 -494 37 -543 l-20 -27 -769 -3 c-462
-1 -764 2 -759 7 22 20 1420 1041 1427 1041 4 0 10 -15 13 -32z"/>
</g>
</svg>
